# xmcd
#
# Track frame offsets:
#	150
#	16433
#	33882
#	50412
#	68367
#	84645
#	105507
#	121101
#	136783
#	154436
#	171019
#	190819
#
# Disc length: 2818 seconds
#
# Revision: 2
# Processed by: cddbd v1.5.2PL0 Copyright (c) Steve Scherf et al.
# Submitted via: audiograbber 1.83.01
#
DISCID=8e0b000c
DTITLE=Adam Hood - The Shape Of Things
DYEAR=2011
DGENRE=Country
TTITLE0=Hell Of A Fight
TTITLE1=Flame And Gasoline
TTITLE2=Grandpa's Farm
TTITLE3=Tennessee Will
TTITLE4=The Shape Of Things
TTITLE5=Gonna Take A Woman
TTITLE6=Front Porch Thang
TTITLE7=Moving Mountains
TTITLE8=Hard Times In The Land Of Plenty
TTITLE9=New Deep Ellum Blues
TTITLE10=Once They're Gone
TTITLE11=I'll Sing About Mine
EXTD=
EXTT0=
EXTT1=
EXTT2=
EXTT3=
EXTT4=
EXTT5=
EXTT6=
EXTT7=
EXTT8=
EXTT9=
EXTT10=
EXTT11=
PLAYORDER=
